<svg width="32" height="32" viewBox="0 0 32 32" fill="none" xmlns="http://www.w3.org/2000/svg">
<path d="M5.16402 22.6925L3.55927 13.1197C3.31663 11.6724 3.19532 10.9487 3.5838 10.4743C3.9723 10 4.68631 10 6.11435 10H25.886C27.314 10 28.028 10 28.4166 10.4743C28.805 10.9487 28.6836 11.6724 28.4411 13.1197L26.8363 22.6925C26.3044 25.8655 26.0384 27.4519 24.9526 28.3927C23.8668 29.3333 22.3015 29.3333 19.1711 29.3333H12.8293C9.69878 29.3333 8.13354 29.3333 7.0477 28.3927C5.96186 27.4519 5.69591 25.8655 5.16402 22.6925Z" stroke="#F6F5FD" stroke-width="2.5"/>
<path d="M23.3332 10C23.3332 5.94993 20.05 2.66669 15.9998 2.66669C11.9497 2.66669 8.6665 5.94993 8.6665 10" stroke="#F6F5FD" stroke-width="2.5"/>
</svg>
